<svg width="18" height="18" viewBox="0 0 18 18" fill="none" xmlns="http://www.w3.org/2000/svg">
<path fill-rule="evenodd" clip-rule="evenodd" d="M12.0682 7.61775L8.50575 11.1772C8.4 11.283 8.2575 11.3422 8.10825 11.3422C7.959 11.3422 7.81575 11.283 7.71 11.1772L5.93175 9.3975C5.712 9.17775 5.712 8.8215 5.93175 8.60175C6.15225 8.382 6.5085 8.3835 6.7275 8.60175L8.10825 9.984L11.2725 6.822C11.4923 6.60225 11.8485 6.603 12.0682 6.822C12.288 7.04175 12.288 7.398 12.0682 7.61775ZM9 1.6875C3.6015 1.6875 1.6875 3.6015 1.6875 9C1.6875 14.3985 3.6015 16.3125 9 16.3125C14.3985 16.3125 16.3125 14.3985 16.3125 9C16.3125 3.6015 14.3985 1.6875 9 1.6875Z" fill="#2FA75F"/>
</svg>
